<svg width="185" height="149" viewBox="0 0 185 149" fill="none" xmlns="http://www.w3.org/2000/svg">
<path d="M113.082 77.0815C113.082 77.0815 133.098 97.0979 165.821 129.821M165.821 129.821C165.821 119.603 165.821 103.658 165.821 103.658M165.821 129.821C155.604 129.821 139.658 129.821 139.658 129.821" stroke="white" stroke-width="7"/>
<path d="M16.3359 36.9922C16.3359 36.1641 15.9219 35.5156 15.0938 35.0469C14.2812 34.5625 12.9688 34.1328 11.1562 33.7578C5.125 32.4922 2.10938 29.9297 2.10938 26.0703C2.10938 23.8203 3.03906 21.9453 4.89844 20.4453C6.77344 18.9297 9.21875 18.1719 12.2344 18.1719C15.4531 18.1719 18.0234 18.9297 19.9453 20.4453C21.8828 21.9609 22.8516 23.9297 22.8516 26.3516H16.0781C16.0781 25.3828 15.7656 24.5859 15.1406 23.9609C14.5156 23.3203 13.5391 23 12.2109 23C11.0703 23 10.1875 23.2578 9.5625 23.7734C8.9375 24.2891 8.625 24.9453 8.625 25.7422C8.625 26.4922 8.97656 27.1016 9.67969 27.5703C10.3984 28.0234 11.6016 28.4219 13.2891 28.7656C14.9766 29.0938 16.3984 29.4688 17.5547 29.8906C21.1328 31.2031 22.9219 33.4766 22.9219 36.7109C22.9219 39.0234 21.9297 40.8984 19.9453 42.3359C17.9609 43.7578 15.3984 44.4688 12.2578 44.4688C10.1328 44.4688 8.24219 44.0938 6.58594 43.3438C4.94531 42.5781 3.65625 41.5391 2.71875 40.2266C1.78125 38.8984 1.3125 37.4688 1.3125 35.9375H7.73438C7.79688 37.1406 8.24219 38.0625 9.07031 38.7031C9.89844 39.3438 11.0078 39.6641 12.3984 39.6641C13.6953 39.6641 14.6719 39.4219 15.3281 38.9375C16 38.4375 16.3359 37.7891 16.3359 36.9922ZM33.9141 21.4062C35.7109 19.25 37.9688 18.1719 40.6875 18.1719C46.1875 18.1719 48.9766 21.3672 49.0547 27.7578V44H42.2812V27.9453C42.2812 26.4922 41.9688 25.4219 41.3438 24.7344C40.7188 24.0312 39.6797 23.6797 38.2266 23.6797C36.2422 23.6797 34.8047 24.4453 33.9141 25.9766V44H27.1406V8H33.9141V21.4062ZM53.1094 31.0859C53.1094 28.5703 53.5938 26.3281 54.5625 24.3594C55.5312 22.3906 56.9219 20.8672 58.7344 19.7891C60.5625 18.7109 62.6797 18.1719 65.0859 18.1719C68.5078 18.1719 71.2969 19.2188 73.4531 21.3125C75.625 23.4062 76.8359 26.25 77.0859 29.8438L77.1328 31.5781C77.1328 35.4688 76.0469 38.5938 73.875 40.9531C71.7031 43.2969 68.7891 44.4688 65.1328 44.4688C61.4766 44.4688 58.5547 43.2969 56.3672 40.9531C54.1953 38.6094 53.1094 35.4219 53.1094 31.3906V31.0859ZM59.8828 31.5781C59.8828 33.9844 60.3359 35.8281 61.2422 37.1094C62.1484 38.375 63.4453 39.0078 65.1328 39.0078C66.7734 39.0078 68.0547 38.3828 68.9766 37.1328C69.8984 35.8672 70.3594 33.8516 70.3594 31.0859C70.3594 28.7266 69.8984 26.8984 68.9766 25.6016C68.0547 24.3047 66.7578 23.6562 65.0859 23.6562C63.4297 23.6562 62.1484 24.3047 61.2422 25.6016C60.3359 26.8828 59.8828 28.875 59.8828 31.5781ZM103.359 34.7891L106.688 18.6406H113.227L106.758 44H101.086L96.2812 28.0391L91.4766 44H85.8281L79.3594 18.6406H85.8984L89.2031 34.7656L93.8438 18.6406H98.7422L103.359 34.7891ZM9.75 100H2.95312V74.6406H9.75V100ZM2.55469 68.0781C2.55469 67.0625 2.89062 66.2266 3.5625 65.5703C4.25 64.9141 5.17969 64.5859 6.35156 64.5859C7.50781 64.5859 8.42969 64.9141 9.11719 65.5703C9.80469 66.2266 10.1484 67.0625 10.1484 68.0781C10.1484 69.1094 9.79688 69.9531 9.09375 70.6094C8.40625 71.2656 7.49219 71.5938 6.35156 71.5938C5.21094 71.5938 4.28906 71.2656 3.58594 70.6094C2.89844 69.9531 2.55469 69.1094 2.55469 68.0781ZM21.5859 74.6406L21.7969 77.5703C23.6094 75.3047 26.0391 74.1719 29.0859 74.1719C31.7734 74.1719 33.7734 74.9609 35.0859 76.5391C36.3984 78.1172 37.0703 80.4766 37.1016 83.6172V100H30.3281V83.7812C30.3281 82.3438 30.0156 81.3047 29.3906 80.6641C28.7656 80.0078 27.7266 79.6797 26.2734 79.6797C24.3672 79.6797 22.9375 80.4922 21.9844 82.1172V100H15.2109V74.6406H21.5859ZM44.1094 100V79.6094H40.3359V74.6406H44.1094V72.4844C44.1094 69.6406 44.9219 67.4375 46.5469 65.875C48.1875 64.2969 50.4766 63.5078 53.4141 63.5078C54.3516 63.5078 55.5 63.6641 56.8594 63.9766L56.7891 69.2266C56.2266 69.0859 55.5391 69.0156 54.7266 69.0156C52.1797 69.0156 50.9062 70.2109 50.9062 72.6016V74.6406H55.9453V79.6094H50.9062V100H44.1094ZM58.4062 87.0859C58.4062 84.5703 58.8906 82.3281 59.8594 80.3594C60.8281 78.3906 62.2188 76.8672 64.0312 75.7891C65.8594 74.7109 67.9766 74.1719 70.3828 74.1719C73.8047 74.1719 76.5938 75.2188 78.75 77.3125C80.9219 79.4062 82.1328 82.25 82.3828 85.8438L82.4297 87.5781C82.4297 91.4688 81.3438 94.5938 79.1719 96.9531C77 99.2969 74.0859 100.469 70.4297 100.469C66.7734 100.469 63.8516 99.2969 61.6641 96.9531C59.4922 94.6094 58.4062 91.4219 58.4062 87.3906V87.0859ZM65.1797 87.5781C65.1797 89.9844 65.6328 91.8281 66.5391 93.1094C67.4453 94.375 68.7422 95.0078 70.4297 95.0078C72.0703 95.0078 73.3516 94.3828 74.2734 93.1328C75.1953 91.8672 75.6562 89.8516 75.6562 87.0859C75.6562 84.7266 75.1953 82.8984 74.2734 81.6016C73.3516 80.3047 72.0547 79.6562 70.3828 79.6562C68.7266 79.6562 67.4453 80.3047 66.5391 81.6016C65.6328 82.8828 65.1797 84.875 65.1797 87.5781Z" fill="white"/>
</svg>
